<?xml version="1.0" standalone="no"?>
<!DOCTYPE svg PUBLIC "-//W3C//DTD SVG 20010904//EN"
 "http://www.w3.org/TR/2001/REC-SVG-20010904/DTD/svg10.dtd">
<svg version="1.0" xmlns="http://www.w3.org/2000/svg"
 width="880.000000pt" height="347.000000pt" viewBox="0 0 880.000000 347.000000"
 preserveAspectRatio="xMidYMid meet">

<g transform="translate(0.000000,347.000000) scale(0.100000,-0.100000)"
fill="#000000" stroke="none">
<path d="M988 2421 c-73 -24 -116 -51 -166 -105 -52 -57 -87 -126 -101 -201
-6 -32 -11 -60 -11 -62 0 -2 -17 -3 -37 -3 -63 0 -64 -2 -61 -156 l3 -139 47
-3 c46 -3 47 -4 53 -40 27 -167 116 -281 262 -334 47 -18 88 -22 211 -26 l154
-4 107 106 c114 112 154 136 223 136 68 -1 116 -30 223 -139 l100 -101 160 0
c164 0 253 13 318 46 51 26 114 82 146 128 34 49 71 151 71 196 0 29 1 30 50
30 l51 0 -3 148 -3 147 -46 3 -46 3 -6 48 c-12 103 -83 217 -170 273 -109 70
-87 68 -816 67 -605 0 -660 -1 -713 -18z m1400 -202 c29 -15 54 -37 73 -67
l29 -46 0 -203 c0 -226 -6 -253 -70 -306 -44 -37 -89 -47 -224 -47 l-120 0
-86 85 c-134 131 -253 174 -396 145 -86 -17 -147 -54 -246 -148 l-88 -84 -102
4 c-122 4 -167 22 -213 87 l-30 43 -3 187 c-4 212 3 253 51 308 57 65 28 62
736 63 639 0 645 0 689 -21z"/>
<path d="M3365 2258 c-3 -7 -45 -130 -94 -273 -49 -143 -96 -280 -105 -304 -9
-24 -16 -45 -16 -47 0 -2 33 -4 73 -4 l73 0 23 70 c26 82 26 82 161 78 l95 -3
23 -72 24 -73 75 0 c68 0 74 2 68 18 -4 9 -43 121 -86 247 -44 127 -91 263
-105 303 l-26 72 -89 0 c-63 0 -91 -4 -94 -12z m134 -245 c19 -60 36 -114 39
-120 3 -10 -17 -13 -78 -13 -80 0 -81 0 -75 23 25 85 70 217 75 217 3 0 21
-48 39 -107z"/>
<path d="M3850 1950 l0 -320 65 0 64 0 3 113 3 112 50 0 50 0 47 -85 c26 -47
53 -97 62 -112 14 -26 19 -28 86 -28 38 0 70 3 70 6 0 4 -27 56 -60 116 -33
60 -60 114 -60 121 0 7 13 20 29 29 45 25 75 91 75 163 1 83 -32 140 -99 177
-49 27 -54 28 -217 28 l-168 0 0 -320z m295 200 c32 -12 59 -71 50 -111 -4
-16 -18 -38 -33 -49 -22 -18 -37 -20 -101 -18 l-76 3 -3 93 -3 92 70 0 c38 0
81 -4 96 -10z"/>
<path d="M5787 2263 c-4 -3 -7 -55 -7 -115 l0 -109 -34 35 c-40 40 -94 53
-154 37 -55 -15 -88 -44 -119 -104 -22 -43 -27 -66 -27 -132 -1 -86 11 -128
52 -184 60 -81 193 -93 256 -22 26 29 36 26 36 -9 l0 -30 65 0 65 0 0 320 0
320 -63 0 c-35 0 -67 -3 -70 -7z m-55 -264 c23 -12 57 -83 58 -119 0 -41 -20
-98 -43 -126 -28 -32 -87 -36 -119 -8 -85 76 -50 264 49 264 19 0 43 -5 55
-11z"/>
<path d="M4558 2105 c-54 -17 -100 -59 -130 -118 -25 -51 -29 -173 -6 -228 38
-90 117 -139 225 -139 92 0 159 40 194 115 29 62 27 65 -46 65 -49 0 -65 -3
-65 -14 0 -20 -57 -66 -81 -66 -11 0 -33 7 -48 15 -74 38 -82 197 -13 258 41
37 110 20 137 -33 14 -28 20 -30 71 -30 37 0 56 4 60 14 6 17 -20 83 -44 109
-49 55 -169 79 -254 52z"/>
<path d="M5085 2111 c-70 -17 -128 -66 -137 -116 -3 -18 3 -20 54 -23 49 -3
59 0 82 23 47 47 136 26 136 -32 0 -31 -18 -40 -108 -52 -126 -16 -177 -52
-187 -132 -11 -81 43 -147 128 -156 67 -8 112 4 147 38 l30 31 0 -31 0 -31 65
0 65 0 0 175 c0 194 -6 223 -58 267 -47 39 -144 57 -217 39z m139 -320 c-14
-68 -109 -106 -154 -61 -45 45 -12 87 82 104 72 13 82 7 72 -43z"/>
<path d="M6185 2111 c-70 -18 -116 -55 -151 -121 -15 -27 -19 -56 -19 -126 0
-83 2 -95 30 -140 23 -37 44 -56 85 -77 49 -26 63 -28 130 -24 50 2 89 11 117
25 46 24 83 69 83 101 0 19 -6 21 -56 21 -48 0 -60 -4 -80 -25 -52 -56 -172
-15 -177 60 l-2 30 163 3 162 2 0 43 c0 92 -40 167 -106 204 -44 25 -132 36
-179 24z m126 -120 c16 -16 29 -39 29 -50 0 -20 -5 -21 -101 -21 -99 0 -100 0
-93 23 23 75 111 101 165 48z"/>
<path d="M6767 2102 c-21 -9 -46 -30 -57 -47 l-20 -30 0 43 0 42 -65 0 -65 0
0 -240 0 -240 70 0 70 0 0 169 0 170 26 20 c33 26 65 27 95 2 23 -19 24 -24
27 -190 l3 -171 65 0 64 0 0 165 c0 163 0 166 25 190 30 30 64 32 99 4 l26
-20 0 -170 0 -169 70 0 70 0 0 168 c-1 201 -7 236 -54 279 -64 59 -170 53
-226 -15 l-28 -34 -16 30 c-9 18 -30 36 -56 46 -51 20 -75 20 -123 -2z"/>
<path d="M7322 2098 c3 -7 42 -120 88 -251 l83 -238 -20 -27 c-15 -20 -29 -27
-53 -28 -29 0 -35 -5 -46 -35 -24 -66 -22 -69 56 -69 139 0 150 14 271 360 55
155 99 285 99 291 0 5 -31 9 -68 9 l-68 0 -49 -175 c-27 -96 -52 -172 -56
-168 -4 5 -21 60 -39 123 -17 63 -38 139 -46 168 l-15 52 -71 0 c-52 0 -69 -3
-66 -12z"/>
</g>
</svg>
